<svg xmlns="http://www.w3.org/2000/svg" xmlns:xlink="http://www.w3.org/1999/xlink" width="2000" zoomAndPan="magnify" viewBox="0 0 1500 599.999999" height="800" preserveAspectRatio="xMidYMid meet" version="1.0"><defs><g/><clipPath id="a5119e1941"><path d="M 1067.160156 147.039062 L 1420 147.039062 L 1420 481.222656 L 1067.160156 481.222656 Z M 1067.160156 147.039062 " clip-rule="nonzero"/></clipPath><clipPath id="499ef946f6"><path d="M 1243.488281 147.039062 C 1146.105469 147.039062 1067.160156 221.847656 1067.160156 314.132812 C 1067.160156 406.414062 1146.105469 481.222656 1243.488281 481.222656 C 1340.867188 481.222656 1419.8125 406.414062 1419.8125 314.132812 C 1419.8125 221.847656 1340.867188 147.039062 1243.488281 147.039062 Z M 1243.488281 147.039062 " clip-rule="nonzero"/></clipPath><clipPath id="d039e05fcf"><path d="M 0.160156 0.0390625 L 352.839844 0.0390625 L 352.839844 334.222656 L 0.160156 334.222656 Z M 0.160156 0.0390625 " clip-rule="nonzero"/></clipPath><clipPath id="269c3e7111"><path d="M 176.488281 0.0390625 C 79.105469 0.0390625 0.160156 74.847656 0.160156 167.132812 C 0.160156 259.414062 79.105469 334.222656 176.488281 334.222656 C 273.867188 334.222656 352.8125 259.414062 352.8125 167.132812 C 352.8125 74.847656 273.867188 0.0390625 176.488281 0.0390625 Z M 176.488281 0.0390625 " clip-rule="nonzero"/></clipPath><clipPath id="39761185cc"><rect x="0" width="353" y="0" height="335"/></clipPath><clipPath id="3049d0d722"><path d="M 1113 194 L 1376 194 L 1376 436 L 1113 436 Z M 1113 194 " clip-rule="nonzero"/></clipPath><clipPath id="26eb4a4c68"><path d="M 1103.78125 203.371094 L 1366.375 184.777344 L 1383.378906 424.925781 L 1120.785156 443.519531 Z M 1103.78125 203.371094 " clip-rule="nonzero"/></clipPath><clipPath id="df4494faec"><path d="M 1103.78125 203.371094 L 1366.375 184.777344 L 1383.378906 424.925781 L 1120.785156 443.519531 Z M 1103.78125 203.371094 " clip-rule="nonzero"/></clipPath><clipPath id="51c85c8a40"><path d="M 1103.78125 203.371094 L 1366.375 184.777344 L 1383.378906 424.925781 L 1120.785156 443.519531 Z M 1103.78125 203.371094 " clip-rule="nonzero"/></clipPath><clipPath id="41c5f2161d"><path d="M 1199 303 L 1290 303 L 1290 371 L 1199 371 Z M 1199 303 " clip-rule="nonzero"/></clipPath><clipPath id="18c3b04b55"><path d="M 1103.78125 203.371094 L 1366.375 184.777344 L 1383.378906 424.925781 L 1120.785156 443.519531 Z M 1103.78125 203.371094 " clip-rule="nonzero"/></clipPath><clipPath id="c305d55514"><path d="M 1103.78125 203.371094 L 1366.375 184.777344 L 1383.378906 424.925781 L 1120.785156 443.519531 Z M 1103.78125 203.371094 " clip-rule="nonzero"/></clipPath><clipPath id="f15b8d0857"><path d="M 1103.78125 203.371094 L 1366.375 184.777344 L 1383.378906 424.925781 L 1120.785156 443.519531 Z M 1103.78125 203.371094 " clip-rule="nonzero"/></clipPath><clipPath id="070315d670"><path d="M 1189 272 L 1208 272 L 1208 290 L 1189 290 Z M 1189 272 " clip-rule="nonzero"/></clipPath><clipPath id="8b9a2e53bd"><path d="M 1103.78125 203.371094 L 1366.375 184.777344 L 1383.378906 424.925781 L 1120.785156 443.519531 Z M 1103.78125 203.371094 " clip-rule="nonzero"/></clipPath><clipPath id="a2044f5d3a"><path d="M 1103.78125 203.371094 L 1366.375 184.777344 L 1383.378906 424.925781 L 1120.785156 443.519531 Z M 1103.78125 203.371094 " clip-rule="nonzero"/></clipPath><clipPath id="3c0ae0341c"><path d="M 1103.78125 203.371094 L 1366.375 184.777344 L 1383.378906 424.925781 L 1120.785156 443.519531 Z M 1103.78125 203.371094 " clip-rule="nonzero"/></clipPath><clipPath id="719e268e57"><path d="M 1287 267 L 1300 267 L 1300 282 L 1287 282 Z M 1287 267 " clip-rule="nonzero"/></clipPath><clipPath id="880d70f9f5"><path d="M 1103.78125 203.371094 L 1366.375 184.777344 L 1383.378906 424.925781 L 1120.785156 443.519531 Z M 1103.78125 203.371094 " clip-rule="nonzero"/></clipPath><clipPath id="bbb332ec11"><path d="M 1103.78125 203.371094 L 1366.375 184.777344 L 1383.378906 424.925781 L 1120.785156 443.519531 Z M 1103.78125 203.371094 " clip-rule="nonzero"/></clipPath><clipPath id="b5edfc2cf3"><path d="M 1103.78125 203.371094 L 1366.375 184.777344 L 1383.378906 424.925781 L 1120.785156 443.519531 Z M 1103.78125 203.371094 " clip-rule="nonzero"/></clipPath></defs><g clip-path="url(#a5119e1941)"><g clip-path="url(#499ef946f6)"><g transform="matrix(1, 0, 0, 1, 1067, 147)"><g clip-path="url(#39761185cc)"><g clip-path="url(#d039e05fcf)"><g clip-path="url(#269c3e7111)"><path fill="#f9ffcd" d="M 0.160156 0.0390625 L 352.617188 0.0390625 L 352.617188 334.222656 L 0.160156 334.222656 Z M 0.160156 0.0390625 " fill-opacity="1" fill-rule="nonzero"/></g></g></g></g></g></g><g clip-path="url(#3049d0d722)"><g clip-path="url(#26eb4a4c68)"><g clip-path="url(#df4494faec)"><g clip-path="url(#51c85c8a40)"><path fill="#fade7d" d="M 1374.535156 309.277344 C 1378.898438 336.722656 1373.394531 367.28125 1353.792969 387.949219 C 1322.945312 419.414062 1277.988281 432.140625 1235.082031 435.367188 C 1190.753906 438.804688 1140.894531 418.507812 1123.117188 375.503906 C 1112.160156 350.960938 1110.480469 322.980469 1116.453125 296.910156 C 1120.488281 278.953125 1125.867188 261.09375 1134.355469 244.707031 C 1148.835938 214.867188 1182.195312 199.695312 1213.777344 195.832031 C 1233.304688 193.476562 1253.460938 193.398438 1272.433594 199.109375 C 1278.082031 201.058594 1284.042969 201.828125 1289.636719 203.964844 C 1297.273438 206.820312 1304.542969 210.570312 1311.605469 214.617188 C 1329.414062 225.617188 1344.621094 241.082031 1356.195312 258.46875 C 1366.09375 273.726562 1371.5625 291.4375 1374.523438 309.269531 Z M 1374.535156 309.277344 " fill-opacity="1" fill-rule="nonzero"/></g></g></g></g><g clip-path="url(#41c5f2161d)"><g clip-path="url(#18c3b04b55)"><g clip-path="url(#c305d55514)"><g clip-path="url(#f15b8d0857)"><path fill="#000000" d="M 1284.421875 303.183594 C 1290.832031 303.378906 1289.75 306.804688 1288.746094 311.660156 C 1287.847656 316.53125 1286.851562 321.386719 1285.347656 326.109375 C 1280.972656 339.09375 1274.636719 352.195312 1264.023438 361.210938 C 1256.835938 366.652344 1247.800781 370.742188 1238.652344 369.890625 C 1221.71875 368.367188 1211.621094 354.890625 1205.242188 340.421875 C 1201.976562 332.734375 1199.894531 324.449219 1199.761719 316.160156 C 1200.046875 314.980469 1201.503906 314.707031 1202.347656 314.003906 C 1204.273438 312.710938 1206.941406 310.832031 1209.132812 312.5625 C 1210.628906 314.300781 1210.542969 316.855469 1211.257812 318.957031 C 1213.191406 325.875 1214.765625 332.753906 1217.558594 339.328125 C 1223.578125 353.074219 1234.179688 363.480469 1249.851562 356.785156 C 1263.585938 350.304688 1271.378906 336.101562 1275.914062 322.238281 C 1277.609375 317.769531 1279.027344 313.199219 1280.375 308.617188 C 1281.253906 306.582031 1281.453125 302.851562 1284.429688 303.183594 Z M 1284.421875 303.183594 " fill-opacity="1" fill-rule="nonzero"/></g></g></g></g><g clip-path="url(#070315d670)"><g clip-path="url(#8b9a2e53bd)"><g clip-path="url(#a2044f5d3a)"><g clip-path="url(#3c0ae0341c)"><path fill="#000000" d="M 1198.773438 272.746094 C 1203.074219 270.789062 1207.339844 275.023438 1207.585938 279.203125 C 1207.871094 284.449219 1202.796875 289.527344 1197.664062 289.917969 C 1190.351562 290.402344 1187.875 281.25 1191.957031 276.214844 C 1193.480469 274.125 1195.996094 271.949219 1198.773438 272.738281 Z M 1198.773438 272.746094 " fill-opacity="1" fill-rule="nonzero"/></g></g></g></g><g clip-path="url(#719e268e57)"><g clip-path="url(#880d70f9f5)"><g clip-path="url(#bbb332ec11)"><g clip-path="url(#b5edfc2cf3)"><path fill="#000000" d="M 1296.171875 268.109375 C 1303.628906 271.140625 1298.1875 283.382812 1290.925781 280.714844 C 1285.070312 278.53125 1286.417969 269.691406 1291.949219 268.003906 C 1293.246094 267.542969 1295.058594 267.054688 1296.171875 268.117188 Z M 1296.171875 268.109375 " fill-opacity="1" fill-rule="nonzero"/></g></g></g></g><g fill="#ffffff" fill-opacity="1"><g transform="translate(63.128279, 390.744244)"><g><path d="M 43.03125 -183.765625 C 50.507812 -183.484375 56.035156 -181.144531 59.609375 -176.75 C 63.179688 -172.351562 64.832031 -166.585938 64.5625 -159.453125 L 59.921875 -37.421875 L 127.984375 -34.828125 C 133.554688 -34.617188 138.179688 -32.53125 141.859375 -28.5625 C 145.535156 -24.59375 147.265625 -19.820312 147.046875 -14.25 C 146.847656 -8.863281 144.757812 -4.285156 140.78125 -0.515625 C 136.8125 3.242188 132.039062 5.019531 126.46875 4.8125 L 35.984375 1.375 C 28.515625 1.082031 23.078125 -1.300781 19.671875 -5.78125 C 16.273438 -10.257812 14.707031 -15.976562 14.96875 -22.9375 L 20.234375 -161.140625 C 20.503906 -168.273438 22.503906 -173.898438 26.234375 -178.015625 C 29.960938 -182.140625 35.5625 -184.054688 43.03125 -183.765625 Z M 43.03125 -183.765625 "/></g></g></g><g fill="#ffffff" fill-opacity="1"><g transform="translate(213.949052, 396.488085)"><g><path d="M 79.25 -95.78125 C 70.726562 -95.976562 63.960938 -93.304688 58.953125 -87.765625 C 53.953125 -82.234375 51.332031 -74.332031 51.09375 -64.0625 C 50.851562 -53.976562 53.101562 -46.003906 57.84375 -40.140625 C 62.582031 -34.285156 69.210938 -31.257812 77.734375 -31.0625 C 86.421875 -30.851562 93.222656 -33.566406 98.140625 -39.203125 C 103.066406 -44.835938 105.648438 -52.695312 105.890625 -62.78125 C 106.128906 -73.050781 103.921875 -81.066406 99.265625 -86.828125 C 94.609375 -92.585938 87.9375 -95.570312 79.25 -95.78125 Z M 80.078125 -131.265625 C 94.335938 -130.929688 106.445312 -127.773438 116.40625 -121.796875 C 126.363281 -115.816406 133.875 -107.675781 138.9375 -97.375 C 144 -87.070312 146.375 -75.222656 146.0625 -61.828125 C 145.75 -48.429688 142.820312 -36.707031 137.28125 -26.65625 C 131.738281 -16.613281 123.851562 -8.84375 113.625 -3.34375 C 103.40625 2.15625 91.164062 4.738281 76.90625 4.40625 C 62.644531 4.070312 50.535156 0.921875 40.578125 -5.046875 C 30.628906 -11.023438 23.117188 -19.160156 18.046875 -29.453125 C 12.984375 -39.753906 10.609375 -51.601562 10.921875 -65 C 11.234375 -78.394531 14.160156 -90.117188 19.703125 -100.171875 C 25.253906 -110.222656 33.140625 -118 43.359375 -123.5 C 53.578125 -129.007812 65.816406 -131.597656 80.078125 -131.265625 Z M 80.078125 -131.265625 "/></g></g></g><g fill="#ffffff" fill-opacity="1"><g transform="translate(368.516211, 400.112653)"><g><path d="M 128.84375 -143.765625 C 134.726562 -140.234375 137.640625 -135.070312 137.578125 -128.28125 C 137.554688 -125.320312 136.75 -122.367188 135.15625 -119.421875 L 130.125 -110.859375 C 140.46875 -98.765625 145.554688 -83.144531 145.390625 -64 C 145.222656 -44.164062 139.34375 -28.128906 127.75 -15.890625 C 134.65625 -9.035156 138.054688 0.128906 137.953125 11.609375 C 137.847656 24.828125 132.929688 35.484375 123.203125 43.578125 C 113.472656 51.671875 97.5625 55.625 75.46875 55.4375 C 61.90625 55.320312 49.789062 53.175781 39.125 49 C 28.457031 44.820312 21.15625 39.0625 17.21875 31.71875 C 17.039062 31.195312 16.785156 30.328125 16.453125 29.109375 C 16.117188 27.890625 15.957031 26.757812 15.96875 25.71875 C 16.007812 21.195312 17.609375 17.335938 20.765625 14.140625 C 23.921875 10.953125 27.929688 9.378906 32.796875 9.421875 C 35.585938 9.441406 38.28125 10.242188 40.875 11.828125 C 46.582031 15.703125 52.171875 18.617188 57.640625 20.578125 C 63.109375 22.546875 68.796875 23.554688 74.703125 23.609375 C 82.710938 23.671875 88.507812 22.410156 92.09375 19.828125 C 95.6875 17.253906 97.5 13.789062 97.53125 9.4375 C 97.5625 6.132812 96.71875 3.515625 95 1.578125 C 92.195312 2.253906 89.316406 2.707031 86.359375 2.9375 C 83.398438 3.175781 80.269531 3.285156 76.96875 3.265625 C 62.707031 3.140625 50.550781 0.164062 40.5 -5.65625 C 30.457031 -11.476562 22.820312 -19.5 17.59375 -29.71875 C 12.375 -39.945312 9.820312 -51.757812 9.9375 -65.15625 C 10.050781 -78.5625 12.804688 -90.328125 18.203125 -100.453125 C 23.597656 -110.585938 31.363281 -118.484375 41.5 -124.140625 C 51.644531 -129.796875 63.847656 -132.5625 78.109375 -132.4375 C 82.109375 -132.40625 85.890625 -132.15625 89.453125 -131.6875 C 93.015625 -131.226562 96.445312 -130.550781 99.75 -129.65625 L 104.515625 -137.703125 C 108.046875 -143.585938 113.117188 -146.503906 119.734375 -146.453125 C 122.691406 -146.421875 125.726562 -145.523438 128.84375 -143.765625 Z M 77.8125 -97.984375 C 69.289062 -98.054688 62.613281 -95.15625 57.78125 -89.28125 C 52.945312 -83.414062 50.484375 -75.257812 50.390625 -64.8125 C 50.304688 -54.375 52.628906 -46.175781 57.359375 -40.21875 C 62.097656 -34.269531 68.726562 -31.257812 77.25 -31.1875 C 85.945312 -31.113281 92.671875 -34.015625 97.421875 -39.890625 C 102.171875 -45.765625 104.585938 -53.921875 104.671875 -64.359375 C 104.765625 -74.804688 102.484375 -83.003906 97.828125 -88.953125 C 93.179688 -94.898438 86.507812 -97.910156 77.8125 -97.984375 Z M 77.8125 -97.984375 "/></g></g></g><g fill="#ffffff" fill-opacity="1"><g transform="translate(526.23658, 401.417166)"><g><path d="M 34.859375 -185.5 C 42.335938 -185.550781 47.957031 -183.457031 51.71875 -179.21875 C 55.488281 -174.976562 57.394531 -169.289062 57.4375 -162.15625 L 58.203125 -40.03125 L 126.3125 -40.46875 C 131.882812 -40.5 136.597656 -38.613281 140.453125 -34.8125 C 144.304688 -31.007812 146.25 -26.320312 146.28125 -20.75 C 146.3125 -15.363281 144.425781 -10.695312 140.625 -6.75 C 136.820312 -2.8125 132.132812 -0.828125 126.5625 -0.796875 L 36.015625 -0.21875 C 28.535156 -0.175781 23 -2.316406 19.40625 -6.640625 C 15.8125 -10.972656 13.992188 -16.617188 13.953125 -23.578125 L 13.078125 -161.890625 C 13.035156 -169.023438 14.785156 -174.734375 18.328125 -179.015625 C 21.867188 -183.296875 27.378906 -185.457031 34.859375 -185.5 Z M 34.859375 -185.5 "/></g></g></g><g fill="#ffffff" fill-opacity="1"><g transform="translate(676.84327, 400.254916)"><g><path d="M 30.90625 -195.75 C 37.6875 -195.863281 43.375 -193.738281 47.96875 -189.375 C 52.570312 -185.007812 54.929688 -179.4375 55.046875 -172.65625 C 55.148438 -165.875 52.976562 -160.226562 48.53125 -155.71875 C 44.09375 -151.21875 38.484375 -148.910156 31.703125 -148.796875 C 24.921875 -148.679688 19.3125 -150.800781 14.875 -155.15625 C 10.445312 -159.519531 8.179688 -165.09375 8.078125 -171.875 C 7.960938 -178.65625 10.039062 -184.300781 14.3125 -188.8125 C 18.59375 -193.320312 24.125 -195.632812 30.90625 -195.75 Z M 31.953125 -133.65625 C 38.566406 -133.757812 43.597656 -131.925781 47.046875 -128.15625 C 50.492188 -124.382812 52.273438 -119.191406 52.390625 -112.578125 L 53.953125 -19.703125 C 54.054688 -13.429688 52.445312 -8.265625 49.125 -4.203125 C 45.8125 -0.148438 40.847656 1.925781 34.234375 2.03125 C 27.617188 2.144531 22.582031 0.234375 19.125 -3.703125 C 15.664062 -7.648438 13.882812 -12.757812 13.78125 -19.03125 L 12.21875 -111.90625 C 12.101562 -118.519531 13.707031 -123.769531 17.03125 -127.65625 C 20.363281 -131.539062 25.335938 -133.539062 31.953125 -133.65625 Z M 31.953125 -133.65625 "/></g></g></g><g fill="#ffffff" fill-opacity="1"><g transform="translate(745.95879, 399.245171)"><g><path d="M 72.546875 -20.734375 C 72.710938 -14.460938 71.109375 -9.28125 67.734375 -5.1875 C 64.359375 -1.09375 59.367188 1.039062 52.765625 1.21875 C 46.148438 1.394531 41.09375 -0.46875 37.59375 -4.375 C 34.101562 -8.289062 32.273438 -13.382812 32.109375 -19.65625 L 29.96875 -100.515625 L 17.1875 -100.1875 C 12.320312 -100.050781 8.421875 -101.207031 5.484375 -103.65625 C 2.554688 -106.113281 1.023438 -109.859375 0.890625 -114.890625 C 0.753906 -119.929688 2.082031 -123.835938 4.875 -126.609375 C 7.675781 -129.378906 11.507812 -130.832031 16.375 -130.96875 L 29.15625 -131.296875 L 29.125 -132.859375 C 28.675781 -149.722656 32.804688 -162.925781 41.515625 -172.46875 C 50.234375 -182.019531 63.023438 -187.015625 79.890625 -187.453125 C 88.765625 -187.691406 96.546875 -186.160156 103.234375 -182.859375 C 109.929688 -179.554688 115.519531 -175.703125 120 -171.296875 C 122.664062 -168.753906 124.050781 -165.566406 124.15625 -161.734375 C 124.269531 -157.398438 122.84375 -153.710938 119.875 -150.671875 C 116.914062 -147.640625 113.347656 -146.066406 109.171875 -145.953125 C 105.523438 -145.859375 102.101562 -147.160156 98.90625 -149.859375 C 97.113281 -151.734375 95.109375 -153.378906 92.890625 -154.796875 C 90.679688 -156.210938 87.664062 -156.875 83.84375 -156.78125 C 79.144531 -156.65625 75.53125 -155.078125 73 -152.046875 C 70.46875 -149.023438 69.269531 -144.988281 69.40625 -139.9375 L 69.59375 -132.375 L 85.765625 -132.796875 C 96.203125 -133.066406 101.5625 -127.984375 101.84375 -117.546875 C 102.101562 -107.460938 97.015625 -102.285156 86.578125 -102.015625 L 70.40625 -101.59375 Z M 72.546875 -20.734375 "/></g></g></g><g fill="#ffffff" fill-opacity="1"><g transform="translate(879.032259, 395.792836)"><g><path d="M 71.578125 -136.078125 C 85.835938 -136.648438 98.117188 -134.269531 108.421875 -128.9375 C 118.734375 -123.613281 126.75 -115.882812 132.46875 -105.75 C 138.195312 -95.625 141.335938 -83.695312 141.890625 -69.96875 C 142.023438 -66.65625 141.140625 -63.78125 139.234375 -61.34375 C 137.328125 -58.914062 134.375 -57.625 130.375 -57.46875 L 49.265625 -54.203125 C 51.847656 -46.304688 56.257812 -40.523438 62.5 -36.859375 C 68.75 -33.203125 76.394531 -31.554688 85.4375 -31.921875 C 89.601562 -32.085938 94.050781 -32.867188 98.78125 -34.265625 C 103.507812 -35.671875 107.222656 -37.5625 109.921875 -39.9375 C 112.441406 -41.957031 115.617188 -43.039062 119.453125 -43.1875 C 123.960938 -43.375 127.625 -42.039062 130.4375 -39.1875 C 133.257812 -36.34375 134.765625 -32.664062 134.953125 -28.15625 C 135.054688 -25.550781 134.535156 -23.265625 133.390625 -21.296875 C 132.242188 -19.328125 130.914062 -17.703125 129.40625 -16.421875 C 123.6875 -11.671875 116.65625 -7.953125 108.3125 -5.265625 C 99.976562 -2.578125 90.941406 -1.039062 81.203125 -0.65625 C 65.210938 -0.0078125 51.796875 -2.335938 40.953125 -7.640625 C 30.117188 -12.953125 21.894531 -20.503906 16.28125 -30.296875 C 10.664062 -40.085938 7.597656 -51.503906 7.078125 -64.546875 C 6.523438 -78.273438 8.691406 -90.414062 13.578125 -100.96875 C 18.460938 -111.53125 25.785156 -119.878906 35.546875 -126.015625 C 45.316406 -132.148438 57.328125 -135.503906 71.578125 -136.078125 Z M 99.609375 -82.359375 C 95.835938 -98.046875 86.910156 -105.609375 72.828125 -105.046875 C 65.703125 -104.753906 60 -102.609375 55.71875 -98.609375 C 51.4375 -94.609375 48.765625 -88.5 47.703125 -80.28125 Z M 99.609375 -82.359375 "/></g></g></g></svg>